<svg width="1920" height="920" viewBox="0 0 1920 920" fill="none" xmlns="http://www.w3.org/2000/svg">
<path d="M-387.4 299.816C-253.148 198.449 -168.126 0.660392 -148.322 -13.1641C-85.2966 -22.1779 -122.429 -227.676 -69.3612 -238.671C-3.02617 -252.414 159.069 -340.785 325.144 -347.38C491.219 -353.974 609.719 -174.475 568.903 -7.49844C541.349 105.224 640.755 280.632 507.838 393.42C417.274 480.041 228.767 504.134 195.03 441.761C158.31 373.872 29.6543 426.586 -65.2964 478.597C-201.337 553.116 -552.474 424.455 -387.4 299.816Z" fill="#FF6666" fill-opacity="0.5"/>
<path d="M2020.95 555.612C1933.32 699.209 1926.9 914.402 1913.56 934.534C1858.25 966.07 1968.28 1143.56 1922.96 1173.28C1866.31 1210.43 1748.01 1352.17 1595.96 1419.31C1443.92 1486.45 1267.77 1363.03 1244.4 1192.73C1228.62 1077.77 1071.73 951.136 1153.92 797.408C1206.33 683.575 1372.81 591.921 1427.1 637.54C1486.19 687.195 1586.49 590.906 1655.7 507.652C1754.85 388.369 2128.7 379.05 2020.95 555.612Z" fill="#FFD84E" fill-opacity="0.5"/>
</svg>
