<svg width="33" height="33" viewBox="0 0 33 33" fill="none" xmlns="http://www.w3.org/2000/svg">
<path d="M12.7779 4.52788C13.0372 4.27741 13.3845 4.13882 13.7451 4.14195C14.1056 4.14509 14.4504 4.28969 14.7054 4.54463C14.9603 4.79957 15.1049 5.14443 15.1081 5.50496C15.1112 5.86548 14.9726 6.2128 14.7221 6.47213L6.06925 15.125L30.25 15.125C30.6147 15.125 30.9644 15.2699 31.2223 15.5277C31.4801 15.7856 31.625 16.1353 31.625 16.5C31.625 16.8647 31.4801 17.2144 31.2223 17.4723C30.9644 17.7301 30.6147 17.875 30.25 17.875L6.06925 17.875L14.7221 26.5279C14.9726 26.7872 15.1112 27.1345 15.1081 27.4951C15.1049 27.8556 14.9603 28.2004 14.7054 28.4554C14.4504 28.7103 14.1056 28.8549 13.745 28.8581C13.3845 28.8612 13.0372 28.7226 12.7779 28.4721L1.77787 17.4721C1.65049 17.3441 1.54957 17.1923 1.48087 17.0253C1.41099 16.859 1.37499 16.6804 1.37499 16.5C1.37499 16.3196 1.41099 16.141 1.48087 15.9748C1.54957 15.8077 1.65049 15.6559 1.77787 15.5279L12.7779 4.52788Z" fill="#A2A2A2"/>
</svg>
