<svg width="35" height="35" viewBox="0 0 35 35" fill="none" xmlns="http://www.w3.org/2000/svg">
<path d="M17.5 2.91666C16.9232 2.91666 16.3593 3.08772 15.8796 3.40821C15.4 3.7287 15.0261 4.18422 14.8054 4.71717C14.5846 5.25012 14.5269 5.83657 14.6394 6.40234C14.752 6.96812 15.0297 7.48782 15.4376 7.89573C15.8455 8.30363 16.3652 8.58141 16.931 8.69395C17.4968 8.8065 18.0832 8.74874 18.6162 8.52798C19.1492 8.30722 19.6047 7.93339 19.9252 7.45374C20.2456 6.9741 20.4167 6.41019 20.4167 5.83333C20.4167 5.05978 20.1094 4.31792 19.5624 3.77094C19.0155 3.22395 18.2736 2.91666 17.5 2.91666ZM17.5 14.5833C16.9232 14.5833 16.3593 14.7544 15.8796 15.0749C15.4 15.3954 15.0261 15.8509 14.8054 16.3838C14.5846 16.9168 14.5269 17.5032 14.6394 18.069C14.752 18.6348 15.0297 19.1545 15.4376 19.5624C15.8455 19.9703 16.3652 20.2481 16.931 20.3606C17.4968 20.4732 18.0832 20.4154 18.6162 20.1946C19.1492 19.9739 19.6047 19.6001 19.9252 19.1204C20.2456 18.6408 20.4167 18.0769 20.4167 17.5C20.4167 16.7264 20.1094 15.9846 19.5624 15.4376C19.0155 14.8906 18.2736 14.5833 17.5 14.5833ZM17.5 26.25C16.9232 26.25 16.3593 26.4211 15.8796 26.7415C15.4 27.062 15.0261 27.5176 14.8054 28.0505C14.5846 28.5835 14.5269 29.1699 14.6394 29.7357C14.752 30.3015 15.0297 30.8212 15.4376 31.2291C15.8455 31.637 16.3652 31.9147 16.931 32.0273C17.4968 32.1398 18.0832 32.0821 18.6162 31.8613C19.1492 31.6406 19.6047 31.2667 19.9252 30.7871C20.2456 30.3074 20.4167 29.7435 20.4167 29.1667C20.4167 28.3931 20.1094 27.6513 19.5624 27.1043C19.0155 26.5573 18.2736 26.25 17.5 26.25Z" fill="#CDCDCD"/>
</svg>
